<mxfile host="app.diagrams.net" modified="2024-04-19T12:22:36.290Z" agent="Mozilla/5.0 (Windows NT 10.0; Win64; x64) AppleWebKit/537.36 (KHTML, like Gecko) Chrome/124.0.0.0 Safari/537.36 Edg/124.0.0.0" etag="4dNjPEjLGmhu0Xkhmxry" version="24.2.5" type="github">
  <diagram name="PÃ¡gina-1" id="t1cLTn4OYz4982EjOqe9">
    <mxGraphModel dx="1066" dy="613" grid="1" gridSize="10" guides="1" tooltips="1" connect="1" arrows="1" fold="1" page="1" pageScale="1" pageWidth="827" pageHeight="1169" math="0" shadow="0">
      <root>
        <mxCell id="0" />
        <mxCell id="1" parent="0" />
        <mxCell id="ycNpNfPkawz7LE0ENZmV-2" value="" style="rounded=0;whiteSpace=wrap;html=1;" vertex="1" parent="1">
          <mxGeometry x="60" y="180" width="160" height="110" as="geometry" />
        </mxCell>
        <mxCell id="ycNpNfPkawz7LE0ENZmV-130" value="USUARIO" style="rounded=0;whiteSpace=wrap;html=1;" vertex="1" parent="1">
          <mxGeometry x="60" y="180" width="160" height="30" as="geometry" />
        </mxCell>
        <mxCell id="ycNpNfPkawz7LE0ENZmV-131" value="" style="rounded=0;whiteSpace=wrap;html=1;" vertex="1" parent="1">
          <mxGeometry x="60" y="210" width="160" height="70" as="geometry" />
        </mxCell>
      </root>
    </mxGraphModel>
  </diagram>
</mxfile>
